<svg width="5" height="18" viewBox="0 0 5 18" fill="none" xmlns="http://www.w3.org/2000/svg">
<path d="M2.5 3.6C3.60457 3.6 4.5 2.79411 4.5 1.8C4.5 0.805887 3.60457 0 2.5 0C1.39543 0 0.5 0.805887 0.5 1.8C0.5 2.79411 1.39543 3.6 2.5 3.6Z" fill="#1F2A37"/>
<path d="M2.5 10.8C3.60457 10.8 4.5 9.99411 4.5 9C4.5 8.00589 3.60457 7.2 2.5 7.2C1.39543 7.2 0.5 8.00589 0.5 9C0.5 9.99411 1.39543 10.8 2.5 10.8Z" fill="#1F2A37"/>
<path d="M2.5 18C3.60457 18 4.5 17.1941 4.5 16.2C4.5 15.2059 3.60457 14.4 2.5 14.4C1.39543 14.4 0.5 15.2059 0.5 16.2C0.5 17.1941 1.39543 18 2.5 18Z" fill="#1F2A37"/>
</svg>
