<svg width="101" height="20" viewBox="0 0 101 20" fill="none" xmlns="http://www.w3.org/2000/svg">
<path d="M9.38232 2.92699C9.68232 2.00599 10.9853 2.00599 11.2843 2.92699L12.3543 6.21899C12.4197 6.41948 12.5468 6.59417 12.7174 6.71809C12.888 6.84202 13.0934 6.90883 13.3043 6.90899H16.7663C17.7353 6.90899 18.1373 8.14899 17.3543 8.71899L14.5543 10.753C14.3833 10.877 14.256 11.052 14.1907 11.2528C14.1253 11.4537 14.1251 11.6701 14.1903 11.871L15.2603 15.163C15.5603 16.084 14.5053 16.851 13.7203 16.281L10.9203 14.247C10.7495 14.123 10.5439 14.0562 10.3328 14.0562C10.1218 14.0562 9.91611 14.123 9.74532 14.247L6.94532 16.281C6.16132 16.851 5.10732 16.084 5.40632 15.163L6.47632 11.871C6.54149 11.6701 6.54138 11.4537 6.47598 11.2528C6.41059 11.052 6.28329 10.877 6.11232 10.753L3.31332 8.71999C2.53032 8.14999 2.93332 6.90999 3.90132 6.90999H7.36232C7.57337 6.91004 7.77902 6.84332 7.94984 6.71938C8.12066 6.59544 8.24789 6.42064 8.31332 6.21999L9.38332 2.92799L9.38232 2.92699Z" fill="#111928"/>
<path d="M29.3823 2.92699C29.6823 2.00599 30.9853 2.00599 31.2843 2.92699L32.3543 6.21899C32.4197 6.41948 32.5468 6.59417 32.7174 6.71809C32.888 6.84202 33.0934 6.90883 33.3043 6.90899H36.7663C37.7353 6.90899 38.1373 8.14899 37.3543 8.71899L34.5543 10.753C34.3833 10.877 34.256 11.052 34.1907 11.2528C34.1253 11.4537 34.1251 11.6701 34.1903 11.871L35.2603 15.163C35.5603 16.084 34.5053 16.851 33.7203 16.281L30.9203 14.247C30.7495 14.123 30.5439 14.0562 30.3328 14.0562C30.1218 14.0562 29.9161 14.123 29.7453 14.247L26.9453 16.281C26.1613 16.851 25.1073 16.084 25.4063 15.163L26.4763 11.871C26.5415 11.6701 26.5414 11.4537 26.476 11.2528C26.4106 11.052 26.2833 10.877 26.1123 10.753L23.3133 8.71999C22.5303 8.14999 22.9333 6.90999 23.9013 6.90999H27.3623C27.5734 6.91004 27.779 6.84332 27.9498 6.71938C28.1207 6.59544 28.2479 6.42064 28.3133 6.21999L29.3833 2.92799L29.3823 2.92699Z" fill="#111928"/>
<path d="M49.3823 2.92699C49.6823 2.00599 50.9853 2.00599 51.2843 2.92699L52.3543 6.21899C52.4197 6.41948 52.5468 6.59417 52.7174 6.71809C52.888 6.84202 53.0934 6.90883 53.3043 6.90899H56.7663C57.7353 6.90899 58.1373 8.14899 57.3543 8.71899L54.5543 10.753C54.3833 10.877 54.256 11.052 54.1907 11.2528C54.1253 11.4537 54.1251 11.6701 54.1903 11.871L55.2603 15.163C55.5603 16.084 54.5053 16.851 53.7203 16.281L50.9203 14.247C50.7495 14.123 50.5439 14.0562 50.3328 14.0562C50.1218 14.0562 49.9161 14.123 49.7453 14.247L46.9453 16.281C46.1613 16.851 45.1073 16.084 45.4063 15.163L46.4763 11.871C46.5415 11.6701 46.5414 11.4537 46.476 11.2528C46.4106 11.052 46.2833 10.877 46.1123 10.753L43.3133 8.71999C42.5303 8.14999 42.9333 6.90999 43.9013 6.90999H47.3623C47.5734 6.91004 47.779 6.84332 47.9498 6.71938C48.1207 6.59544 48.2479 6.42064 48.3133 6.21999L49.3833 2.92799L49.3823 2.92699Z" fill="#111928"/>
<path d="M69.3823 2.92699C69.6823 2.00599 70.9853 2.00599 71.2843 2.92699L72.3543 6.21899C72.4197 6.41948 72.5468 6.59417 72.7174 6.71809C72.888 6.84202 73.0934 6.90883 73.3043 6.90899H76.7663C77.7353 6.90899 78.1373 8.14899 77.3543 8.71899L74.5543 10.753C74.3833 10.877 74.256 11.052 74.1907 11.2528C74.1253 11.4537 74.1251 11.6701 74.1903 11.871L75.2603 15.163C75.5603 16.084 74.5053 16.851 73.7203 16.281L70.9203 14.247C70.7495 14.123 70.5439 14.0562 70.3328 14.0562C70.1218 14.0562 69.9161 14.123 69.7453 14.247L66.9453 16.281C66.1613 16.851 65.1073 16.084 65.4063 15.163L66.4763 11.871C66.5415 11.6701 66.5414 11.4537 66.476 11.2528C66.4106 11.052 66.2833 10.877 66.1123 10.753L63.3133 8.71999C62.5303 8.14999 62.9333 6.90999 63.9013 6.90999H67.3623C67.5734 6.91004 67.779 6.84332 67.9498 6.71938C68.1207 6.59544 68.2479 6.42064 68.3133 6.21999L69.3833 2.92799L69.3823 2.92699Z" fill="#111928"/>
<path d="M89.3823 2.92699C89.6823 2.00599 90.9853 2.00599 91.2843 2.92699L92.3543 6.21899C92.4197 6.41948 92.5468 6.59417 92.7174 6.71809C92.888 6.84202 93.0934 6.90883 93.3043 6.90899H96.7663C97.7353 6.90899 98.1373 8.14899 97.3543 8.71899L94.5543 10.753C94.3833 10.877 94.256 11.052 94.1907 11.2528C94.1253 11.4537 94.1251 11.6701 94.1903 11.871L95.2603 15.163C95.5603 16.084 94.5053 16.851 93.7203 16.281L90.9203 14.247C90.7495 14.123 90.5439 14.0562 90.3328 14.0562C90.1218 14.0562 89.9161 14.123 89.7453 14.247L86.9453 16.281C86.1613 16.851 85.1073 16.084 85.4063 15.163L86.4763 11.871C86.5415 11.6701 86.5414 11.4537 86.476 11.2528C86.4106 11.052 86.2833 10.877 86.1123 10.753L83.3133 8.71999C82.5303 8.14999 82.9333 6.90999 83.9013 6.90999H87.3623C87.5734 6.91004 87.779 6.84332 87.9498 6.71938C88.1207 6.59544 88.2479 6.42064 88.3133 6.21999L89.3833 2.92799L89.3823 2.92699Z" fill="#111928"/>
</svg>
